<svg width="377" height="388" viewBox="0 0 377 388" fill="none" xmlns="http://www.w3.org/2000/svg">
<path d="M377 188.5C377 138.507 357.14 90.561 321.79 55.2104C286.439 19.8598 238.493 3.77439e-06 188.5 0C138.507 -3.77439e-06 90.561 19.8598 55.2104 55.2104C19.8598 90.561 7.54878e-06 138.507 0 188.5L188.5 188.5H377Z" fill="#D4E08A"/>
<path d="M7 209.5C7 256.841 25.8062 302.243 59.2814 335.719C92.7567 369.194 138.159 388 185.5 388C232.841 388 278.243 369.194 311.719 335.719C345.194 302.243 364 256.841 364 209.5L274.75 209.5C274.75 233.171 265.347 255.872 248.609 272.609C231.872 289.347 209.171 298.75 185.5 298.75C161.829 298.75 139.128 289.347 122.391 272.609C105.653 255.872 96.25 233.171 96.25 209.5H7Z" fill="#D4E08A"/>
</svg>
